<svg xmlns="http://www.w3.org/2000/svg" xmlns:xlink="http://www.w3.org/1999/xlink" version="1.1" x="0px" y="0px" viewBox="0 0 24 30" enable-background="new 0 0 24 24" xml:space="preserve"><path d="M22.604,1.162c-1.226-1.079-3.264-0.943-4.339,0.28L6.256,15.112c-0.07,0.079-0.106,0.184-0.099,0.289  c0.007,0.106,0.055,0.205,0.135,0.275l0.128,0.112l-6.038,6.872c-0.115,0.131-0.132,0.321-0.042,0.471  c0.074,0.122,0.205,0.193,0.342,0.193c0.031,0,0.063-0.004,0.095-0.012l7.135-1.743c0.08-0.02,0.152-0.063,0.206-0.125l2.065-2.351  l0.128,0.112c0.076,0.066,0.17,0.1,0.264,0.1c0.111,0,0.221-0.047,0.3-0.137L22.886,5.5c0.542-0.617,0.811-1.408,0.758-2.228  C23.591,2.453,23.222,1.703,22.604,1.162z M21.164,4.342c-0.371,0.422-1.013,0.464-1.435,0.093  c-0.422-0.371-0.464-1.013-0.093-1.435c0.371-0.422,1.013-0.464,1.435-0.093C21.494,3.277,21.535,3.92,21.164,4.342z"/><text x="0" y="39" fill="#000000" font-size="5px" font-weight="bold" font-family="'Helvetica Neue', Helvetica, Arial-Unicode, Arial, Sans-serif">Created by myiconfinder</text><text x="0" y="44" fill="#000000" font-size="5px" font-weight="bold" font-family="'Helvetica Neue', Helvetica, Arial-Unicode, Arial, Sans-serif">from the Noun Project</text></svg>